<svg xmlns="http://www.w3.org/2000/svg" viewBox="0 0 1127 278"><defs><style>.cls-1{fill:#ccc;}.cls-2{fill:none;stroke:#000;stroke-miterlimit:10;stroke-width:2px;}.cls-3{fill:#b3b3b3;}.cls-4{fill:#662d91;}</style></defs><title>Asset 9</title><g id="Layer_2" data-name="Layer 2"><g id="Layer_1-2" data-name="Layer 1"><rect class="cls-1" x="1" y="2" width="1125" height="225"/><rect class="cls-2" x="1" y="2" width="1125" height="225"/><polygon class="cls-3" points="423.63 277 374 227.37 374 1 754 1 754 228.37 705.37 277 423.63 277"/><path d="M753,2V228l-48,48H424l-49-49V2Zm2-2H373V227.79l.59.58,49,49,.58.59H705.79l.58-.59,48-48,.59-.58V0Z"/><polygon class="cls-1" points="375 2 375 224.83 435.04 261 693.96 261 753 225.67 753 2 375 2"/><path class="cls-4" d="M462.77,76.71a15,15,0,0,0-14.95-15.08h-7.41v30h7.41a15,15,0,0,0,14.95-15m33.7,59.88H469.26l-21.59-30h-7.26v29.91h-24V46.68h34.33c19.8,0,36,13.46,36,30,0,10.1-6.19,19.13-15.63,24.64l25.37,35.24"/><path class="cls-4" d="M523.5,82.1c-6.33,0-11.72,8.6-11.72,19.25s5.39,19.27,11.72,19.27,11.85-8.62,11.85-19.27S530,82.1,523.5,82.1m36.91,19.25a36.84,36.84,0,1,1-36.9-36.63,36.72,36.72,0,0,1,36.9,36.63M616.66,66.2,589,93.82V66.12h-24v70.41h24V108l28.83,28.56H648L611.4,99.87l30.35-30.34v41.78c0,13.87,8.34,26.68,29.34,26.68,10,0,19.13-5.66,23.58-10.78l10.77,9.3h5.12V66.2h-24v45.52c-2.69,4.71-6.46,7.67-12.27,7.67s-8.6-3.49-8.6-14.67V66.2Z"/><polygon class="cls-4" points="416 146.21 438.83 146.21 438.83 156.59 429.48 156.59 429.48 166.42 437.81 166.42 437.81 176.28 429.48 176.28 429.48 198.05 416 198.05 416 146.21"/><polygon class="cls-4" points="455.58 146.21 455.58 187.68 463.78 187.68 463.78 198.05 442.1 198.05 442.1 146.21 455.58 146.21"/><path class="cls-4" d="M492,146.21l7.71,51.84H485.91l-.72-9.31h-4.82l-.82,9.31H465.62l6.87-51.84Zm-7.15,33.34q-1-8.82-2.05-21.78-2.05,14.89-2.59,21.78Z"/><path class="cls-4" d="M530.54,161.9H518v-3.84a7.57,7.57,0,0,0-.48-3.43,1.76,1.76,0,0,0-1.6-.73,2,2,0,0,0-1.84,1,5.72,5.72,0,0,0-.63,3,8.49,8.49,0,0,0,.71,3.91c.44.88,1.71,1.93,3.81,3.17q9,5.34,11.33,8.77t2.34,11.05q0,5.53-1.29,8.16a10.23,10.23,0,0,1-5,4.41,19.84,19.84,0,0,1-8.64,1.77,19.29,19.29,0,0,1-9.24-2,10,10,0,0,1-5-5.22,26.69,26.69,0,0,1-1.19-9v-3.4h12.52v6.31a8.37,8.37,0,0,0,.53,3.75,2.06,2.06,0,0,0,1.88.83,2.19,2.19,0,0,0,2-1.06,6.1,6.1,0,0,0,.65-3.14c0-3-.41-5-1.25-6a39.47,39.47,0,0,0-6.3-4.71,59.18,59.18,0,0,1-6.66-4.84,11.34,11.34,0,0,1-2.71-4.16,18.2,18.2,0,0,1-1.07-6.79c0-4,.5-6.87,1.52-8.71a10.21,10.21,0,0,1,4.91-4.3,19.57,19.57,0,0,1,8.2-1.56,21.36,21.36,0,0,1,9,1.7,9.38,9.38,0,0,1,4.9,4.27q1.2,2.58,1.2,8.76Z"/><polygon class="cls-4" points="566.89 146.21 566.89 198.05 553.41 198.05 553.41 176.28 549.37 176.28 549.37 198.05 535.89 198.05 535.89 146.21 549.37 146.21 549.37 164.75 553.41 164.75 553.41 146.21 566.89 146.21"/><path class="cls-4" d="M572.3,146.21h13.45a35.51,35.51,0,0,1,9.65,1,9.53,9.53,0,0,1,5.3,4c1.35,2,2,5.26,2,9.74q0,4.54-1.43,6.34t-5.62,2.75q4.68,1.06,6.34,3.51c1.11,1.63,1.67,4.14,1.67,7.51v4.81c0,3.5-.4,6.1-1.2,7.78a6.49,6.49,0,0,1-3.83,3.47q-2.62.92-10.76.92H572.3Zm13.48,8.87v11.53l1.34,0c1.33,0,2.17-.33,2.53-1s.55-2.51.55-5.59a9,9,0,0,0-.45-3.41,2.15,2.15,0,0,0-1.17-1.23,10.31,10.31,0,0,0-2.8-.29m0,19.6v14.5c1.9-.06,3.11-.36,3.63-.89s.79-1.85.79-3.94v-4.84c0-2.22-.24-3.56-.71-4s-1.7-.74-3.71-.8"/><path class="cls-4" d="M631.82,146.21l7.71,51.84H625.75l-.72-9.31H620.2l-.81,9.31H605.46l6.87-51.84Zm-7.15,33.34q-1-8.82-2-21.78-2.05,14.89-2.59,21.78Z"/><path class="cls-4" d="M673.29,168.79H659.81v-9a16.15,16.15,0,0,0-.43-4.91,1.85,1.85,0,0,0-1.9-1,2,2,0,0,0-2.12,1.18,18,18,0,0,0-.45,5.12v24.09a16.78,16.78,0,0,0,.45,4.93,2.3,2.3,0,0,0,4,0,18.83,18.83,0,0,0,.46-5.42v-6.52h13.48v2q0,8.06-1.13,11.42a11.72,11.72,0,0,1-5,5.9,17.19,17.19,0,0,1-9.59,2.53,19.88,19.88,0,0,1-9.77-2.14,10.42,10.42,0,0,1-5.09-5.94q-1.24-3.8-1.25-11.42V164.5a66.42,66.42,0,0,1,.39-8.41,11.71,11.71,0,0,1,2.29-5.4,12.82,12.82,0,0,1,5.28-4.08,21.59,21.59,0,0,1,17.6.82,11,11,0,0,1,5.09,5.74q1.21,3.44,1.21,10.69Z"/><polygon class="cls-4" points="710.26 146.21 702.53 169.62 711 198.05 697.07 198.05 691.61 175.83 691.61 198.05 678.13 198.05 678.13 146.21 691.61 146.21 691.61 166.35 697.62 146.21 710.26 146.21"/></g></g></svg>