<svg xmlns="http://www.w3.org/2000/svg" xmlns:xlink="http://www.w3.org/1999/xlink" viewBox="0 0 263.5 329"><defs><style>.cls-1{fill:none;}.cls-2{clip-path:url(#clip-path);}.cls-3{fill:#662f90;}.cls-4{fill:#fff;}</style><clipPath id="clip-path" transform="translate(-0.5)"><rect class="cls-1" width="264" height="329"/></clipPath></defs><title>Asset 1</title><g id="Layer_2" data-name="Layer 2"><g id="Layer_1-2" data-name="Layer 1"><g class="cls-2"><rect class="cls-3" x="26.13" y="149.54" width="237.37" height="44.87"/><polygon class="cls-3" points="205.57 0 0 107.68 24.73 146.53 230.29 38.86 205.57 0"/><rect class="cls-3" x="26.13" y="203.38" width="237.37" height="125.62"/><rect class="cls-4" x="55.81" y="221.32" width="187.92" height="17.95"/><rect class="cls-4" x="55.81" y="248.24" width="187.92" height="17.95"/><rect class="cls-4" x="55.81" y="275.16" width="108.79" height="17.95"/><rect class="cls-4" x="55.8" y="158.51" width="39.56" height="17.95"/><rect class="cls-4" x="105.26" y="158.51" width="39.56" height="17.95"/><rect class="cls-4" x="154.71" y="158.51" width="39.56" height="17.95"/><rect class="cls-4" x="204.16" y="158.51" width="39.56" height="17.95"/><polygon class="cls-4" points="70.43 101.78 36.39 120.06 31 111.81 65.04 93.52 70.43 101.78"/><polygon class="cls-4" points="112.98 78.92 78.94 97.21 73.55 88.95 107.59 70.66 112.98 78.92"/><polygon class="cls-4" points="155.53 56.06 121.49 74.35 116.1 66.09 150.14 47.8 155.53 56.06"/><polygon class="cls-4" points="198.08 33.2 164.04 51.49 158.65 43.23 192.69 24.94 198.08 33.2"/></g></g></g></svg>