<?xml version="1.0" encoding="utf-8"?>
<!-- Generator: Adobe Illustrator 24.0.2, SVG Export Plug-In . SVG Version: 6.00 Build 0)  -->
<svg version="1.1" id="Layer_1" xmlns="http://www.w3.org/2000/svg" xmlns:xlink="http://www.w3.org/1999/xlink" x="0px" y="0px"
	 viewBox="0 0 2500 776" style="enable-background:new 0 0 2500 776;" xml:space="preserve">
<style type="text/css">
	.st0{fill:#FFFFFF;}
	.st1{fill:#6C3C97;}
</style>
<path class="st0" d="M394,255.2c0-71-57.1-128.2-127-128.2h-63v255.2h63C336.8,382.2,394,325,394,255.2 M680.4,764H449.2
	L265.7,509.3H204v254.1H0.3V0h291.8c168.2,0,305.5,114.4,305.5,255.2c0,85.8-52.6,162.5-132.8,209.4L680.4,764"/>
<path class="st0" d="M910.1,301c-53.8,0-99.6,73.1-99.6,163.6s45.8,163.7,99.6,163.7c55,0,100.7-73.2,100.7-163.7
	C1010.8,374.1,965.2,301,910.1,301 M1223.7,464.6c0,172.9-140.6,311.4-313.5,311.4c-172.9,0-312.5-138.5-312.5-311.4
	c0-172.8,139.6-311.3,312.5-311.3C1083,153.3,1223.7,291.8,1223.7,464.6 M1701.7,165.9L1467,400.6V165.2h-203.7v598.3H1467V520.7
	l245,242.7h256.3l-311.3-311.4l257.9-257.8v355c0,117.9,70.9,226.7,249.4,226.7c84.7,0,162.5-48.1,200.3-91.6l91.6,79h43.5V165.9
	H2296v386.8c-22.9,40-54.9,65.2-104.3,65.2c-50.1,0-73.1-29.7-73.1-124.7V165.9H1701.7L1701.7,165.9z"/>
</svg>
