<svg xmlns="http://www.w3.org/2000/svg" xmlns:xlink="http://www.w3.org/1999/xlink" viewBox="0 0 264.11 329"><defs><style>.cls-1{fill:none;}.cls-2{clip-path:url(#clip-path);}.cls-3{fill:#662f90;}.cls-4{fill:#fff;}</style><clipPath id="clip-path"><rect class="cls-1" x="0.11" width="264" height="329"/></clipPath></defs><title>Asset 3</title><g id="Layer_2" data-name="Layer 2"><g id="Layer_1-2" data-name="Layer 1"><g class="cls-2"><g class="cls-2"><path class="cls-3" d="M233.68,329H30.43A30.44,30.44,0,0,1,0,298.57V136a30.44,30.44,0,0,1,30.43-30.44H233.68A30.43,30.43,0,0,1,264.11,136V298.57A30.43,30.43,0,0,1,233.68,329"/><rect class="cls-4" x="27.01" y="150.46" width="186.1" height="132.67"/><path class="cls-4" d="M251.89,162.52a11.62,11.62,0,1,1-11.62-11.62,11.62,11.62,0,0,1,11.62,11.62"/><path class="cls-4" d="M251.89,197.38a11.62,11.62,0,1,1-11.62-11.62,11.62,11.62,0,0,1,11.62,11.62"/><path class="cls-3" d="M119.89,125.5a8.47,8.47,0,0,1-6.72-3.29L28.9,13.71A8.5,8.5,0,0,1,42.33,3.29l84.26,108.5a8.5,8.5,0,0,1-6.7,13.71"/><path class="cls-3" d="M148.23,125.5a8.5,8.5,0,0,1-6-14.51l98.66-98.66a8.5,8.5,0,0,1,12,12L154.24,123a8.46,8.46,0,0,1-6,2.49"/></g></g></g></g></svg>